<?xml version="1.0" standalone="no"?>
<!DOCTYPE svg PUBLIC "-//W3C//DTD SVG 20010904//EN"
 "http://www.w3.org/TR/2001/REC-SVG-20010904/DTD/svg10.dtd">
<svg version="1.0" xmlns="http://www.w3.org/2000/svg"
 width="212.000000pt" height="212.000000pt" viewBox="0 0 212.000000 212.000000"
 preserveAspectRatio="xMidYMid meet">

<g transform="translate(0.000000,212.000000) scale(0.100000,-0.100000)"
fill="#000000" stroke="none">
<path d="M0 1060 l0 -1060 1060 0 1060 0 0 1060 0 1060 -1060 0 -1060 0 0
-1060z m588 550 c158 -119 322 -243 365 -278 43 -34 83 -62 88 -62 13 0 208
142 414 301 94 72 203 156 244 187 41 32 85 65 98 76 13 10 27 16 30 13 3 -4
6 -367 7 -809 l1 -803 -40 0 -40 0 -5 723 -5 723 -49 -31 c-27 -17 -109 -78
-183 -136 -223 -175 -455 -344 -472 -344 -9 0 -79 48 -156 106 -77 58 -212
160 -300 227 -295 222 -369 295 -351 343 8 22 24 11 354 -236z m-290 -343 l44
-13 1 -512 c1 -334 -1 -513 -8 -515 -12 -5 -74 9 -83 18 -13 12 -14 155 -7
591 4 244 8 444 9 444 0 0 21 -6 44 -13z"/>
</g>
</svg>
